<svg width="1200" height="630" viewBox="0 0 1200 630" fill="none" xmlns="http://www.w3.org/2000/svg">
  <rect width="1200" height="630" fill="#F1E3C6"/>
  <rect x="30" y="30" width="1140" height="570" rx="56" fill="url(#bg)" />
  <rect x="86" y="74" width="430" height="482" rx="48" fill="#201712"/>
  <rect x="118" y="106" width="366" height="418" rx="40" fill="url(#board)" />
  <g opacity="0.38" stroke="#6D4927" stroke-width="5">
    <line x1="154" y1="142" x2="448" y2="142" />
    <line x1="154" y1="227" x2="448" y2="227" />
    <line x1="154" y1="312" x2="448" y2="312" />
    <line x1="154" y1="397" x2="448" y2="397" />
    <line x1="154" y1="482" x2="448" y2="482" />
    <line x1="154" y1="142" x2="154" y2="482" />
    <line x1="228" y1="142" x2="228" y2="482" />
    <line x1="302" y1="142" x2="302" y2="482" />
    <line x1="376" y1="142" x2="376" y2="482" />
    <line x1="448" y1="142" x2="448" y2="482" />
  </g>
  <circle cx="228" cy="227" r="8" fill="#6D4927" />
  <circle cx="302" cy="312" r="8" fill="#6D4927" />
  <circle cx="376" cy="397" r="8" fill="#6D4927" />
  <text
    x="301"
    y="356"
    text-anchor="middle"
    font-size="176"
    font-family="'Songti SC', 'Noto Serif CJK SC', serif"
    fill="#20150D"
  >
    跳
  </text>
  <circle cx="905" cy="210" r="72" fill="url(#blackStone)" />
  <circle cx="1000" cy="300" r="72" fill="url(#whiteStone)" />
  <text
    x="600"
    y="258"
    font-size="116"
    font-family="'Zen Old Mincho', 'Times New Roman', serif"
    fill="#261A11"
  >
    Tiao
  </text>
  <text
    x="600"
    y="350"
    font-size="34"
    font-family="'Zen Kaku Gothic New', 'Helvetica Neue', sans-serif"
    fill="#5B4835"
  >
    A lighter board, sharper stones, and room-based play.
  </text>
  <text
    x="600"
    y="420"
    font-size="28"
    font-family="'Zen Kaku Gothic New', 'Helvetica Neue', sans-serif"
    fill="#7C694F"
  >
    Multiplayer rooms • Over the board • Local sessions
  </text>
  <defs>
    <linearGradient id="bg" x1="600" y1="30" x2="600" y2="600" gradientUnits="userSpaceOnUse">
      <stop stop-color="#F7EBD2" />
      <stop offset="1" stop-color="#DFC08B" />
    </linearGradient>
    <linearGradient id="board" x1="301" y1="106" x2="301" y2="524" gradientUnits="userSpaceOnUse">
      <stop stop-color="#F7E6BE" />
      <stop offset="1" stop-color="#D9A75D" />
    </linearGradient>
    <radialGradient id="blackStone" cx="0" cy="0" r="1" gradientUnits="userSpaceOnUse" gradientTransform="translate(880 186) rotate(48.4156) scale(118.011)">
      <stop stop-color="#625B56" />
      <stop offset="0.55" stop-color="#2B2622" />
      <stop offset="1" stop-color="#0D0B0A" />
    </radialGradient>
    <radialGradient id="whiteStone" cx="0" cy="0" r="1" gradientUnits="userSpaceOnUse" gradientTransform="translate(974 276) rotate(48.4156) scale(118.011)">
      <stop stop-color="#FFFDF9" />
      <stop offset="0.62" stop-color="#F0E8DB" />
      <stop offset="1" stop-color="#D7CAB8" />
    </radialGradient>
  </defs>
</svg>
